<?xml version="1.0" standalone="no"?>
<!DOCTYPE svg PUBLIC "-//W3C//DTD SVG 20010904//EN"
 "http://www.w3.org/TR/2001/REC-SVG-20010904/DTD/svg10.dtd">
<svg version="1.0" xmlns="http://www.w3.org/2000/svg"
 width="4000.000000pt" height="4000.000000pt" viewBox="0 0 4000.000000 4000.000000"
 preserveAspectRatio="xMidYMid meet">
<metadata>
Created by potrace 1.14, written by Peter Selinger 2001-2017
</metadata>
<g transform="translate(0.000000,4000.000000) scale(0.100000,-0.100000)"
fill="#000000" stroke="none">
<path d="M5855 36080 c-474 -34 -904 -227 -1249 -560 -332 -321 -542 -750
-596 -1215 -14 -128 -14 -28318 1 -28453 24 -221 85 -434 185 -641 109 -227
234 -401 410 -571 320 -309 701 -492 1149 -552 83 -11 2548 -13 14260 -13
13612 0 14164 1 14275 18 307 48 567 146 810 305 511 333 831 859 900 1477 6
59 10 2942 10 8425 -1 7078 -3 8352 -15 8450 -67 556 -343 1038 -783 1369
-250 189 -526 309 -869 378 -83 17 -308 18 -4093 23 -4331 7 -4032 3 -4257 55
-750 174 -1347 784 -1502 1535 -11 52 -25 133 -31 180 -7 58 -10 1317 -10
3960 0 2584 -4 3915 -11 3995 -61 712 -480 1327 -1114 1635 -189 93 -375 151
-596 187 -98 16 -612 18 -8439 19 -4584 1 -8380 -2 -8435 -6z m12723 -27199
c383 -74 690 -300 857 -631 201 -398 159 -896 -106 -1250 -233 -311 -596 -482
-1024 -482 -367 0 -672 118 -906 352 -355 355 -447 900 -229 1359 186 389 545
627 1015 675 81 8 297 -5 393 -23z m-10884 -549 c227 -605 257 -684 262 -679
2 2 92 239 199 528 108 288 207 554 221 592 l26 67 294 0 c162 0 294 -2 294
-5 0 -3 86 -508 190 -1123 105 -615 190 -1122 190 -1125 0 -4 -133 -7 -295 -7
-190 0 -295 4 -295 10 0 22 -180 1217 -188 1244 -6 26 -39 -48 -261 -590 -140
-340 -259 -629 -264 -642 -10 -22 -14 -23 -130 -20 l-119 3 -214 550 c-118
303 -231 593 -251 645 l-37 95 -96 -643 c-53 -353 -99 -644 -102 -647 -3 -3
-135 -4 -295 -3 l-289 3 192 1125 c106 619 192 1126 193 1128 1 1 133 2 294 2
l292 0 189 -508z m3334 261 l-3 -248 -347 -3 -348 -2 0 -185 0 -185 328 -2
327 -3 3 -247 2 -248 -330 0 -330 0 0 -195 0 -195 350 0 350 0 0 -250 0 -250
-650 0 -650 0 0 1130 0 1130 650 0 650 0 -2 -247z m1557 219 c104 -30 302
-128 385 -191 84 -63 214 -199 265 -276 94 -142 163 -317 185 -473 18 -124 8
-314 -23 -434 -55 -208 -162 -392 -313 -538 -133 -128 -267 -211 -429 -267
-144 -49 -201 -53 -726 -53 l-489 0 0 1130 0 1131 533 -3 c516 -4 534 -4 612
-26z m1569 4 c32 -128 377 -1410 380 -1414 3 -3 306 908 457 1376 l21 62 237
0 237 0 233 -712 c128 -392 236 -716 240 -721 4 -4 92 313 197 704 104 390
192 715 195 720 3 6 125 8 311 7 l305 -3 -336 -1127 -336 -1128 -301 0 -302 0
-89 263 c-50 144 -148 434 -219 644 -71 211 -132 383 -135 383 -3 0 -104 -290
-224 -645 l-218 -645 -303 0 c-167 0 -304 2 -304 6 0 4 -636 2142 -666 2237
-5 16 14 17 304 17 l310 0 6 -24z m6979 -15 c284 -98 440 -312 454 -622 10
-208 -41 -368 -154 -489 -72 -77 -144 -122 -251 -159 l-80 -28 295 -384 c162
-211 321 -419 354 -461 l60 -78 -369 0 -369 0 -274 425 -274 426 -3 -426 -2
-425 -300 0 -300 0 0 1130 0 1131 558 -3 557 -3 98 -34z m1519 -418 l3 -457
350 457 350 456 363 1 c199 0 362 -2 362 -6 0 -3 -196 -239 -435 -525 -240
-285 -438 -525 -441 -532 -2 -7 212 -275 476 -596 264 -321 483 -588 486 -593
3 -4 -167 -8 -378 -8 l-383 1 -375 482 -375 481 -3 -482 -2 -482 -300 0 -300
0 0 1130 0 1130 300 0 300 0 2 -457z"/>
<path d="M18147 8315 c-65 -16 -155 -59 -220 -104 -102 -70 -207 -225 -238
-351 -20 -79 -17 -241 5 -315 82 -274 325 -454 617 -455 282 0 551 206 614
471 19 82 19 216 0 298 -47 198 -210 372 -415 442 -84 29 -275 36 -363 14z"/>
<path d="M12040 7709 l0 -632 138 6 c78 3 163 13 197 22 158 44 300 157 368
296 47 96 67 187 67 310 0 251 -119 458 -321 558 -106 52 -194 71 -336 71
l-113 0 0 -631z"/>
<path d="M20520 8110 l0 -280 68 0 c144 0 266 36 326 96 47 47 66 99 66 184 0
85 -19 137 -66 184 -60 60 -182 96 -326 96 l-68 0 0 -280z"/>
<path d="M30064 35139 c-290 -26 -612 -145 -854 -317 -122 -86 -326 -290 -413
-412 -128 -180 -240 -440 -288 -666 -33 -162 -39 -304 -39 -1046 l0 -728 -764
0 c-622 0 -786 -3 -879 -15 -532 -70 -994 -370 -1277 -830 -272 -442 -327
-1023 -143 -1515 221 -592 717 -1003 1353 -1121 110 -21 151 -22 913 -26 l797
-5 0 -726 c0 -425 4 -773 10 -837 52 -543 324 -1007 769 -1306 315 -212 665
-311 1050 -296 871 33 1580 702 1671 1577 5 53 10 425 10 843 l0 747 693 0
c735 0 916 7 1079 41 772 159 1343 810 1397 1591 34 500 -138 977 -481 1334
-267 277 -575 443 -968 521 -74 14 -188 17 -902 20 l-818 4 0 750 c0 462 -4
787 -11 847 -47 431 -223 792 -532 1088 -293 282 -659 448 -1067 484 -128 11
-174 11 -306 -1z"/>
</g>
</svg>
